HIERARCHY
ROOT Hips
{
 OFFSET 0.000000 0.000000 0.000000
 CHANNELS 6 Xposition Yposition Zposition Yrotation Xrotation Zrotation
 JOINT Chest
 {
  OFFSET 0.000000 9.585900 0.002600
  CHANNELS 3 Yrotation Xrotation Zrotation
  JOINT Chest2
  {
   OFFSET 0.000000 9.601200 -0.005300
   CHANNELS 3 Yrotation Xrotation Zrotation
   JOINT Chest3
   {
    OFFSET 0.000000 9.561800 0.000000
    CHANNELS 3 Yrotation Xrotation Zrotation
    JOINT Chest4
    {
     OFFSET 0.000000 9.552100 0.000000
     CHANNELS 3 Yrotation Xrotation Zrotation
     JOINT Neck
     {
      OFFSET 0.000000 14.453000 0.000000
      CHANNELS 3 Yrotation Xrotation Zrotation
      JOINT Head
      {
       OFFSET 0.000000 8.936500 -0.011300
       CHANNELS 3 Yrotation Xrotation Zrotation
       End Site
       {
        OFFSET 0.000000 17.073600 -0.006000
       }
      }
     }
     JOINT RightCollar
     {
      OFFSET -2.921100 9.558500 0.000000
      CHANNELS 3 Yrotation Xrotation Zrotation
      JOINT RightShoulder
      {
       OFFSET -13.519700 0.000000 0.000000
       CHANNELS 3 Yrotation Xrotation Zrotation
       JOINT RightElbow
       {
        OFFSET 0.000000 -29.696600 0.000000
        CHANNELS 3 Yrotation Xrotation Zrotation
        JOINT RightWrist
        {
         OFFSET 0.000000 -24.004700 0.000000
         CHANNELS 3 Yrotation Xrotation Zrotation
         End Site
         {
          OFFSET 0.000000 -17.728500 0.000000
         }
        }
       }
      }
     }
     JOINT LeftCollar
     {
      OFFSET 2.921100 9.558500 0.000000
      CHANNELS 3 Yrotation Xrotation Zrotation
      JOINT LeftShoulder
      {
       OFFSET 13.519700 0.000000 0.000000
       CHANNELS 3 Yrotation Xrotation Zrotation
       JOINT LeftElbow
       {
        OFFSET 0.000000 -29.696600 0.000000
        CHANNELS 3 Yrotation Xrotation Zrotation
        JOINT LeftWrist
        {
         OFFSET 0.000000 -24.004700 0.000000
         CHANNELS 3 Yrotation Xrotation Zrotation
         End Site
         {
          OFFSET 0.000000 -17.728500 0.000000
         }
        }
       }
      }
     }
    }
   }
  }
 }
 JOINT RightHip
 {
  OFFSET -7.771700 -0.012900 -0.001300
  CHANNELS 3 Yrotation Xrotation Zrotation
  JOINT RightKnee
  {
   OFFSET 0.000000 -40.869800 0.001200
   CHANNELS 3 Yrotation Xrotation Zrotation
   JOINT RightAnkle
   {
    OFFSET 0.000000 -39.717900 0.002100
    CHANNELS 3 Yrotation Xrotation Zrotation
    JOINT RightToe
    {
     OFFSET 0.000000 -4.965400 11.033500
     CHANNELS 3 Yrotation Xrotation Zrotation
     End Site
     {
      OFFSET 0.000000 -1.423100 5.872300
     }
    }
   }
  }
 }
 JOINT LeftHip
 {
  OFFSET 7.771700 -0.012900 -0.001300
  CHANNELS 3 Yrotation Xrotation Zrotation
  JOINT LeftKnee
  {
   OFFSET 0.000000 -40.869800 0.001200
   CHANNELS 3 Yrotation Xrotation Zrotation
   JOINT LeftAnkle
   {
    OFFSET 0.000000 -39.717900 0.002100
    CHANNELS 3 Yrotation Xrotation Zrotation
    JOINT LeftToe
    {
     OFFSET 0.000000 -4.965400 11.033500
     CHANNELS 3 Yrotation Xrotation Zrotation
     End Site
     {
      OFFSET 0.000000 -1.423100 5.872300
     }
    }
   }
  }
 }
}
MOTION
Frames: 7
Frame Time: 0.008333
-204.238412 57.651992 -66.540373 159.213589 -8.360288 0.007216 3.423242 7.146528 0.841010 0.152975 0.340660 0.004765 0.267463 0.595271 0.008837 3.076565 6.799430 0.268593 0.258368 18.218080 -0.998749 0.779869 -1.964030 -1.902611 2.427840 7.719154 1.007569 2.379480 -6.976965 -10.408889 -44.783306 -74.221091 79.240303 0.086645 6.126829 -13.625644 -4.582601 7.551844 -2.518266 8.417584 -4.131371 6.359180 89.594342 -80.076780 -126.351551 -3.481224 8.739104 10.350953 -16.699851 -63.495629 9.196907 -32.031064 72.257830 -32.265843 -3.100491 -6.518916 -1.877828 -0.210582 0.594254 -0.096154 1.158363 -66.025489 16.736050 41.835909 66.176297 34.875415 -17.629382 -11.686040 4.172714 -0.165820 -0.621862 -0.062285
-204.238985 57.651031 -66.542174 159.206989 -8.363228 0.004740 3.434060 7.151872 0.839074 0.153240 0.340489 0.004453 0.267935 0.594962 0.008439 3.081836 6.796690 0.264323 0.251250 18.214507 -0.989765 0.753295 -1.984763 -1.890207 2.418891 7.712583 1.004637 2.383621 -6.976112 -10.410336 -44.778368 -74.216692 79.230555 0.090015 6.124353 -13.622983 -4.580439 7.536614 -2.515046 8.394734 -4.120563 6.384847 89.538232 -80.071286 -126.313139 -3.508987 8.779967 10.246335 -16.690422 -63.491675 9.192920 -32.028431 72.258874 -32.261017 -3.095189 -6.521621 -1.872505 -0.218604 0.598155 -0.099557 1.130366 -66.023579 16.765278 41.866169 66.185544 34.902165 -17.608611 -11.728296 4.165138 -0.178965 -0.619988 -0.062136
-204.239697 57.650068 -66.543038 159.207287 -8.360175 -0.000540 3.447196 7.155071 0.839727 0.152121 0.338988 0.004779 0.264448 0.591353 0.009844 3.091338 6.795076 0.260647 0.232893 18.200040 -0.986506 0.726168 -1.998502 -1.873601 2.406011 7.709777 1.004141 2.382157 -6.975770 -10.407754 -44.758252 -74.221035 79.207343 0.091227 6.115182 -13.622251 -4.592266 7.523728 -2.514529 8.376617 -4.114187 6.410404 89.409997 -80.078699 -126.235321 -3.502786 8.771735 10.273732 -16.698071 -63.494009 9.201543 -32.037975 72.258796 -32.270118 -3.092539 -6.519002 -1.865898 -0.220956 0.596791 -0.103214 1.097457 -66.026768 16.798063 41.881363 66.190609 34.909913 -17.593181 -11.754718 4.161590 -0.159863 -0.658710 -0.060882
-204.241188 57.649231 -66.544220 159.204264 -8.357484 -0.001008 3.455552 7.156227 0.839395 0.153696 0.340942 0.003355 0.272236 0.596344 0.007021 3.089204 6.786638 0.260594 0.222375 18.195104 -0.979904 0.694205 -2.026333 -1.862490 2.399890 7.704850 0.998197 2.377693 -6.974860 -10.402530 -44.759463 -74.220153 79.207350 0.095768 6.114776 -13.621742 -4.600286 7.505731 -2.517980 8.341267 -4.107015 6.450234 89.166412 -80.102290 -126.090232 -3.476391 8.734966 10.366818 -16.693434 -63.496814 9.199353 -32.041375 72.259465 -32.271599 -3.091241 -6.521346 -1.864935 -0.224380 0.600125 -0.102792 1.074755 -66.027917 16.822728 41.899091 66.193295 34.917863 -17.586802 -11.771200 4.161018 -0.147408 -0.672986 -0.061543
-204.242733 57.648404 -66.544775 159.200987 -8.352092 -0.003347 3.461032 7.152008 0.841546 0.160123 0.348086 -0.001544 0.267770 0.591274 0.010461 3.115722 6.793509 0.252876 0.194492 18.176871 -0.968344 0.662761 -2.051163 -1.851521 2.376507 7.694195 0.993996 2.376939 -6.973891 -10.405096 -44.798104 -74.211149 79.242109 0.116375 6.119436 -13.617416 -4.625210 7.480452 -2.514608 8.258931 -4.107986 6.530587 88.926516 -80.074962 -125.872979 -3.493541 8.753732 10.318828 -16.684460 -63.502866 9.195086 -32.036173 72.262195 -32.259582 -3.099036 -6.520930 -1.865127 -0.225168 0.601070 -0.102730 1.051758 -66.030254 16.848439 41.918585 66.190035 34.929544 -17.593496 -11.789831 4.150487 -0.137830 -0.668029 -0.053205
-204.244366 57.647332 -66.543072 159.209265 -8.335307 -0.012709 3.458334 7.142266 0.844142 0.158726 0.344301 0.000691 0.268015 0.591746 0.010574 3.128077 6.799388 0.245503 0.176903 18.155221 -0.969631 0.634875 -2.076086 -1.832626 2.379160 7.681677 0.977143 2.360983 -6.970957 -10.381648 -44.792747 -74.218798 79.238477 0.114026 6.124206 -13.616487 -4.636679 7.460145 -2.510288 8.212067 -4.100799 6.575122 88.747348 -80.074820 -125.736375 -3.502466 8.763532 10.293158 -16.712306 -63.517679 9.215360 -32.021721 72.265123 -32.239876 -3.105441 -6.517843 -1.868326 -0.224286 0.599289 -0.102057 1.013767 -66.045609 16.878269 41.941957 66.175589 34.941107 -17.583418 -11.790535 4.141306 -0.141774 -0.671536 -0.045153
-204.248044 57.646309 -66.542322 159.213746 -8.321404 -0.009209 3.459740 7.135394 0.833849 0.155944 0.341027 0.003648 0.272549 0.595951 0.006945 3.137603 6.806022 0.238058 0.162652 18.137387 -0.957189 0.605122 -2.113809 -1.823840 2.368481 7.665626 0.984389 2.360563 -6.967374 -10.384293 -44.788186 -74.219672 79.231653 0.111685 6.129761 -13.610964 -4.650516 7.443095 -2.496117 8.164072 -4.098088 6.613734 88.565134 -80.077988 -125.599740 -3.503123 8.764029 10.292814 -16.722726 -63.532581 9.219608 -32.016093 72.264183 -32.235349 -3.113502 -6.518494 -1.870692 -0.216899 0.602131 -0.100516 1.013170 -66.059776 16.873301 41.942850 66.172050 34.938063 -17.593433 -11.783528 4.124148 -0.165636 -0.698694 -0.046157
